# xmcd CD database file
# Copyright (C) 1993-1998 Ti Kan
# 
# Track frame offsets:
#     150
#     16792
#     32187
#     50442
#     63207
#     78492
#     91207
#     105960
#     118165
#     134685
#     152642
#     164122
#     176315
# 
# Disc length: 2534 seconds
# 
# Revision: 1
# Processed by: cddbd v1.4b41PL1 Copyright (c) Steve Scherf et al.
# Submitted via: DiscPlay 4.0.4
# 
DISCID=a109e40d
DTITLE=Various Artist - Rodeo Super Hits
DYEAR=1900
DGENRE=
TTITLE0=Shut Up And Kiss Me
TTITLE1=A Real Good Way To Wind Up Lonesome
TTITLE2=Heart Like A Hurricane
TTITLE3=I Try To Thing About Elvis
TTITLE4=More Love
TTITLE5=Third Rock From The Sun
TTITLE6=She Can't Say I Didn't Cry
TTITLE7=Jukebox Junkie
TTITLE8=Old Enough To Know Better
TTITLE9=Little Rock
TTITLE10=The Fields Have Turned Brown
TTITLE11=Don't Get Above Your Raising
TTITLE12=Blue Moon Of Kentucky
EXTD=
EXTT0=
EXTT1=
EXTT2=
EXTT3=
EXTT4=
EXTT5=
EXTT6=
EXTT7=
EXTT8=
EXTT9=
EXTT10=
EXTT11=
EXTT12=
PLAYORDER=
